# xmcd
#
# Track frame offsets:
#	150
#	15535
#	29535
#	41146
#	52557
#	64107
#	76214
#	94021
#	107837
#	120527
#	133824
#	146677
#	159431
#	174167
#	184015
#	203583
#	221337
#	234281
#	250245
#	265283
#	281318
#	300132
#	313052
#
# Disc length: 4329
#
# Revision: 3
# Processed by: cddbd v1.5.1PL0 Copyright (c) Steve Scherf et al.
# Submitted via: EasyCDDAExtractor 5.0.7
# Normalized: r2:DSETVAR1
#
DISCID=2a10e717
DTITLE=Various Artist - All Time Greatest Country Classik [CD2)
DYEAR=1900
DGENRE=Country
TTITLE0=Kenny Rogers - For The Good Times
TTITLE1=Dolly Parton - I Will Always Love You
TTITLE2=Bobbie Gentry&Glen Campbell - Dream
TTITLE3=Johnny Paycheck - Relase Me
TTITLE4=Freddie Fender - Before The Next Teardrop Falls
TTITLE5=Tammy Winette - Stand By Your Man
TTITLE6=Rendnex - Wish You Where Here
TTITLE7=Willie Nelson - Funny How Time Sleep Away
TTITLE8=Kitty Wells - Making Believe
TTITLE9=Patti Page - Tennessee Waltz
TTITLE10=Waylon Jennings - My Heroes Have Always Been Cowboys
TTITLE11=Patsy Cline - I Fall To Pieces
TTITLE12=Olivia Newton John - Banks Of The Ohio
TTITLE13=Hank Locklin - Please Help Me I´m Falling
TTITLE14=Kris Kristoferson - Me and Bobby Mc Gee
TTITLE15=Waylon and Jessi - Suscipious Minds
TTITLE16=Travis Tritt and Marty Stuart - A Hundred Yars From Now
TTITLE17=Billy Joe Spears - Blanket On The Ground
TTITLE18=Don Williams - I Recall A Gipsy Woman
TTITLE19=Joe South - Games People Play
TTITLE20=Jimmy Buffer - Margaritaville
TTITLE21=Johnny Cash - Folsom Prison Blue
TTITLE22=Tennessee Ernie Ford - Sixteen Tons
EXTD=
EXTT0=
EXTT1=
EXTT2=
EXTT3=
EXTT4=
EXTT5=
EXTT6=
EXTT7=
EXTT8=
EXTT9=
EXTT10=
EXTT11=
EXTT12=
EXTT13=
EXTT14=
EXTT15=
EXTT16=
EXTT17=
EXTT18=
EXTT19=
EXTT20=
EXTT21=
EXTT22=
PLAYORDER=
